{
  "accessors": [
    {
      "bufferView": 2,
      "componentType": 5126,
      "count": 4297,
      "max": [
        0.3343851566314697,
        0.3197603225708008,
        1.3297947645187378
      ],
      "min": [
        -0.18479610979557037,
        -0.37999165058135986,
        -0.0021151977125555277
      ],
      "type": "VEC3"
    },
    {
      "bufferView": 2,
      "byteOffset": 51564,
      "componentType": 5126,
      "count": 4297,
      "max": [
        0.9999100565910339,
        0.999915599822998,
        0.9973169565200806
      ],
      "min": [
        -0.9998845458030701,
        -0.9990232586860657,
        -0.9999018907546997
      ],
      "type": "VEC3"
    },
    {
      "bufferView": 3,
      "componentType": 5126,
      "count": 4297,
      "max": [
        0.9999542832374573,
        0.9997485280036926,
        0.9992368817329407,
        1.0
      ],
      "min": [
        -0.9992948174476624,
        -0.9999837875366211,
        -0.996739387512207,
        -1.0
      ],
      "type": "VEC4"
    },
    {
      "bufferView": 1,
      "componentType": 5126,
      "count": 4297,
      "max": [
        0.9759149551391602,
        1.0
      ],
      "min": [
        -2.1155448948206867e-08,
        -4.019199195681722e-08
      ],
      "type": "VEC2"
    },
    {
      "bufferView": 1,
      "byteOffset": 34376,
      "componentType": 5126,
      "count": 4297,
      "max": [
        0.9759149551391602,
        1.0
      ],
      "min": [
        -2.1155448948206867e-08,
        -4.019199195681722e-08
      ],
      "type": "VEC2"
    },
    {
      "bufferView": 1,
      "byteOffset": 68752,
      "componentType": 5126,
      "count": 4297,
      "max": [
        0.9759149551391602,
        1.0
      ],
      "min": [
        -2.1155448948206867e-08,
        -4.019199195681722e-08
      ],
      "type": "VEC2"
    },
    {
      "bufferView": 0,
      "componentType": 5125,
      "count": 14511,
      "type": "SCALAR"
    }
  ],
  "asset": {
    "extras": {
      "author": "EvanLegrand (https://sketchfab.com/evan4129)",
      "license": "CC-BY-4.0 (http://creativecommons.org/licenses/by/4.0/)",
      "source": "https://sketchfab.com/3d-models/snake-plant-scan-lowpoly-6f136e24e4184f758aeb8ef376099e2a",
      "title": "Snake plant scan LOWPOLY"
    },
    "generator": "Sketchfab-15.99.0",
    "version": "2.0"
  },
  "bufferViews": [
    {
      "buffer": 0,
      "byteLength": 58044,
      "name": "floatBufferViews",
      "target": 34963
    },
    {
      "buffer": 0,
      "byteLength": 103128,
      "byteOffset": 58044,
      "byteStride": 8,
      "name": "floatBufferViews",
      "target": 34962
    },
    {
      "buffer": 0,
      "byteLength": 103128,
      "byteOffset": 161172,
      "byteStride": 12,
      "name": "floatBufferViews",
      "target": 34962
    },
    {
      "buffer": 0,
      "byteLength": 68752,
      "byteOffset": 264300,
      "byteStride": 16,
      "name": "floatBufferViews",
      "target": 34962
    }
  ],
  "buffers": [
    {
      "byteLength": 333052,
      "uri": "scene.bin"
    }
  ],
  "images": [
    {
      "uri": "textures/snakeplant_baseColor.jpeg"
    },
    {
      "uri": "textures/snakeplant_metallicRoughness.png"
    },
    {
      "uri": "textures/snakeplant_normal.png"
    }
  ],
  "materials": [
    {
      "doubleSided": true,
      "name": "snakeplant",
      "normalTexture": {
        "index": 2
      },
      "pbrMetallicRoughness": {
        "baseColorTexture": {
          "index": 0
        },
        "metallicFactor": 0.0,
        "metallicRoughnessTexture": {
          "index": 1
        }
      }
    }
  ],
  "meshes": [
    {
      "name": "Snakeplant_snakeplant_0",
      "primitives": [
        {
          "attributes": {
            "NORMAL": 1,
            "POSITION": 0,
            "TANGENT": 2,
            "TEXCOORD_0": 3,
            "TEXCOORD_1": 4,
            "TEXCOORD_2": 5
          },
          "indices": 6,
          "material": 0,
          "mode": 4
        }
      ]
    }
  ],
  "nodes": [
    {
      "children": [
        1
      ],
      "matrix": [
        1.0,
        0.0,
        0.0,
        0.0,
        0.0,
        2.220446049250313e-16,
        -1.0,
        0.0,
        0.0,
        1.0,
        2.220446049250313e-16,
        0.0,
        0.0,
        0.0,
        0.0,
        1.0
      ],
      "name": "Sketchfab_model"
    },
    {
      "children": [
        2
      ],
      "matrix": [
        0.009999999776482582,
        0.0,
        0.0,
        0.0,
        0.0,
        0.0,
        0.009999999776482582,
        0.0,
        0.0,
        -0.009999999776482582,
        0.0,
        0.0,
        0.0,
        0.0,
        0.0,
        1.0
      ],
      "name": "snakeplant.fbx"
    },
    {
      "children": [
        3
      ],
      "name": "RootNode"
    },
    {
      "children": [
        4
      ],
      "matrix": [
        100.0,
        0.0,
        0.0,
        0.0,
        -0.0,
        -1.629206793918314e-05,
        -99.99999999999868,
        0.0,
        0.0,
        99.99999999999868,
        -1.629206793918314e-05,
        0.0,
        -7.259305000305176,
        0.5247460007667542,
        -157.54539489746094,
        1.0
      ],
      "name": "Snakeplant"
    },
    {
      "mesh": 0,
      "name": "Snakeplant_snakeplant_0"
    }
  ],
  "samplers": [
    {
      "magFilter": 9729,
      "minFilter": 9987,
      "wrapS": 10497,
      "wrapT": 10497
    }
  ],
  "scene": 0,
  "scenes": [
    {
      "name": "Sketchfab_Scene",
      "nodes": [
        0
      ]
    }
  ],
  "textures": [
    {
      "sampler": 0,
      "source": 0
    },
    {
      "sampler": 0,
      "source": 1
    },
    {
      "sampler": 0,
      "source": 2
    }
  ]
}
